<svg width="48" height="48" viewBox="0 0 48 48" fill="none" xmlns="http://www.w3.org/2000/svg">
<rect width="48" height="48" rx="8" fill="#7C3AED"/>
<path d="M26.08 20.8138C27.1526 19.736 28.375 19 29.92 19C31.2779 19 32.5802 19.5394 33.5404 20.4996C34.5006 21.4598 35.04 22.7621 35.04 24.12C35.04 25.4779 34.5006 26.7802 33.5404 27.7404C32.5802 28.7006 31.2779 29.24 29.92 29.24C24.16 29.24 22.88 19 17.12 19C15.7621 19 14.4598 19.5394 13.4996 20.4996C12.5394 21.4598 12 22.7621 12 24.12C12 25.4779 12.5394 26.7802 13.4996 27.7404C14.4598 28.7006 15.7621 29.24 17.12 29.24C18.665 29.24 19.8874 28.504 20.96 27.4262" stroke="white" stroke-width="1.92" stroke-linecap="round" stroke-linejoin="round"/>
</svg>
