<svg width="13" height="7" viewBox="0 0 13 7" fill="none" xmlns="http://www.w3.org/2000/svg">
<path d="M7.52047 1.38686C8.05679 0.84798 8.66799 0.47998 9.44047 0.47998C10.1194 0.47998 10.7706 0.749694 11.2507 1.22979C11.7308 1.70988 12.0005 2.36103 12.0005 3.03998C12.0005 3.71893 11.7308 4.37008 11.2507 4.85017C10.7706 5.33027 10.1194 5.59998 9.44047 5.59998C6.56047 5.59998 5.92047 0.47998 3.04047 0.47998C2.36151 0.47998 1.71037 0.749694 1.23028 1.22979C0.750182 1.70988 0.480469 2.36103 0.480469 3.03998C0.480469 3.71893 0.750182 4.37008 1.23028 4.85017C1.71037 5.33027 2.36151 5.59998 3.04047 5.59998C3.81295 5.59998 4.42415 5.23198 4.96047 4.6931" stroke="white" stroke-width="0.96" stroke-linecap="round" stroke-linejoin="round"/>
</svg>
